<svg width="103px" height="94px" viewBox="0 0 103 94" version="1.1" xml:space="preserve" xmlns="http://www.w3.org/2000/svg" xmlns:xlink="http://www.w3.org/1999/xlink">
  <defs/>
  <g>
    <title>bat-d</title>
    <desc>Created with Sketch.</desc>
    <g id="bat-d" stroke="none" stroke-width="1" fill="none" fill-rule="evenodd">
      <path d="M44.8329114,51.2346703 C44.6620253,50.7910989 16.8455696,25.7274176 16.6253165,25.2118132 C16.8873418,24.6393407 13.735443,21.7466484 13.2987342,21.2765385 C12.4746835,20.3893956 9.72911392,18.3610989 9.8164557,17.0531319 C9.33037975,24.373956 8.81392405,32.4075275 10.8151899,39.5804945 C14.6126582,39.1558791 15.8012658,43.057033 16.7658228,45.9193956 C18.3265823,50.5332967 18.9,57.7555495 18.9,57.7555495 C18.9,57.7555495 24.8392405,58.1346703 27.9189873,60.7885165 C30.9987342,63.4423626 31.6291139,71.4835165 31.6291139,71.4835165 L44.8329114,51.2346703 Z" id="Shape" fill="#C8C8BE" fill-rule="nonzero"/>
      <polygon id="Shape" fill="#F0E6D2" fill-rule="nonzero" points="28.2721519 61.1183516 41.4113924 51.8071429 41.6164557 56.0912088"/>
      <polygon id="Shape" fill="#F0E6D2" fill-rule="nonzero" points="10.8151899 39.5804945 16.6405063 28.3964286 19.3139241 31.2170879"/>
      <polygon id="Shape" fill="#F0E6D2" fill-rule="nonzero" points="18.9 57.7555495 27.3265823 35.7134615 31.2189873 41.9613736"/>
      <path d="M98.6202532,18.8046703 C96.4367089,21.4888462 80.8443038,35.2054396 80.8443038,35.2054396 L60.7177215,44.4635714 L55.3291139,63.9010989 C58.021519,65.9900549 73.7658228,69.8381319 73.7658228,69.8381319 C73.7658228,69.8381319 71.6126582,65.0195055 73.7658228,59.7724725 C75.9189873,54.5254396 83.2594937,56.3148901 84.2924051,55.9092308 C84.7898734,55.2154396 84.5316456,48.4026374 87.8962025,43.0191209 C90.0151899,39.607033 95.7379747,36.7863736 97.1924051,36.3693407 C97.8607595,33.67 98.8481013,21.7276923 98.6202532,18.8046703 Z" id="Shape" fill="#C8C8BE" fill-rule="nonzero"/>
      <polygon id="Shape" fill="#F0E6D2" fill-rule="nonzero" points="73.7696203 59.7610989 65.4113924 53.1378571 63.5164557 55.8902747"/>
      <polygon id="Shape" fill="#F0E6D2" fill-rule="nonzero" points="97.1924051 36.339011 89.5936709 26.406044 86.643038 29.7688462"/>
      <polygon id="Shape" fill="#F0E6D2" fill-rule="nonzero" points="84.2924051 55.8978571 75.056962 36.0812088 69.5810127 40.2856593"/>
      <path d="M40.9746835,40.8315934 C40.9746835,40.8315934 40.7924051,48.141044 40.0101266,51.246044 C38.8101266,51.1436813 30.6113924,43.6332967 29.2670886,42.4845604 C26.7227848,40.3121978 24.3303797,37.9085714 21.956962,35.5428571 C19.2987342,32.889011 16.9291139,29.7309341 14.7189873,26.6752198 C12.8202532,24.0213736 10.1240506,20.1202198 9.8278481,16.8180769 C10.1734177,17.0758791 10.9101266,19.3164835 11.5063291,18.8729121 C12.1025316,18.4293407 10.556962,16.3934615 10.5987342,15.6958791 C10.9291139,15.9498901 12.2924051,18.2473626 12.7936709,17.9706044 C13.1126582,17.5914835 11.8594937,15.7262088 11.8291139,15.2788462 C12.4253165,15.312967 13.6556962,17.3905495 14.0278481,17.8568681 C15.0987342,19.1951648 16.2113924,20.5107143 17.3240506,21.8300549 C19.435443,24.3057143 21.4708861,26.7586264 23.9506329,28.8627473 C26.6544304,31.164011 29.2670886,33.6282967 32.1379747,35.721044 C35.0088608,37.8137912 40.9746835,40.8315934 40.9746835,40.8315934 Z" id="Shape" fill="#828278" fill-rule="nonzero"/>
      <path d="M64.6898734,49.0206044 C64.2531646,48.0348901 63.7291139,40.6230769 63.8962025,39.9217033 C70.5,37.3285165 76.6405063,33.4766484 82.5227848,29.5413736 C85.2073653,27.6830139 87.7290778,25.6004816 90.0607595,23.3162088 C92.0886076,21.4206044 94.1240506,18.6947253 96.5164557,17.2768132 C96.5848101,17.6824725 95.2632911,18.8274176 95.5405063,19.1724176 C95.8177215,19.5174176 97.4658228,17.8947802 98.0126582,17.5611538 C97.9936709,18.0615934 96.1822785,19.7297253 96.7101266,20.1164286 C97.2379747,20.5031319 98.4379747,18.9790659 98.7303797,18.7781319 C97.678481,21.4092308 95.5936709,23.8128571 93.8278481,25.9814286 C91.3367089,29.0674725 88.7620253,31.9980769 85.7240506,34.541978 C80.278481,39.1331319 71.6582278,47.3676374 64.6898734,49.0206044 Z" id="Shape" fill="#828278" fill-rule="nonzero"/>
      <path d="M41.1683544,54.2335165 C41.1683544,54.2335165 33.1367089,69.4362637 31.5455696,71.1309341 C31.3932627,70.6184483 31.1776831,70.1268709 30.9037975,69.6675275 L30.6227848,69.6902747 L30.5392405,69.9101648 C30.8924051,70.6684066 31.0594937,72.382033 31.7810127,72.9052198 C33.8012658,71.8247253 35.6278481,70.2968681 37.6063291,69.114011 C38.6620253,68.4922527 45.4443038,64.5190659 45.8696203,64.2764286 C45.3607595,63.9276374 41.1683544,54.2335165 41.1683544,54.2335165 Z" id="Shape" fill="#3C3C32" fill-rule="nonzero"/>
      <path d="M75.0113924,67.4345055 L74.9126582,67.225989 C73.9253165,67.316978 73.4506329,69.4286813 73.4506329,69.4286813 L63.7936709,56.8873626 C63.7936709,56.8873626 58.2341772,66.445 58.3670886,66.6193956 C62.8726555,68.9470699 67.5950463,70.8301191 72.4670886,72.2417582 C73.6556962,71.1043956 74.3544304,68.9206593 75.0113924,67.4345055 Z" id="Shape" fill="#3C3C32" fill-rule="nonzero"/>
      <path d="M48.8249889,11.3751648 L47.1797468,11.0329125 C47.3389638,10.7707618 47.4981808,10.5377389 47.6043254,10.304716 C47.8431509,9.6202113 48.1085125,8.94298857 48.2677295,8.25848388 C48.4004103,7.73418241 48.2677295,7.72690044 49.5945377,7.3628022 C50.9744181,7.50115953 51.2663159,7.58126114 51.1867074,7.8798217 C51.0009543,8.43325103 50.7621288,8.98668036 50.5233034,9.53282773 C50.2844779,10.0789751 50.0456524,10.4285094 49.7272185,10.8654273 C49.4952571,11.0438767 49.1927068,11.2148102 48.8249889,11.3751648 Z" id="Shape" fill="#64645A" fill-rule="nonzero"/>
      <path d="M49.8824292,11.7315385 L47.8626049,11.4950825 C47.8626049,11.2290695 47.8626049,10.9852242 47.6634673,10.7561575 C47.3220885,10.0689573 47.009158,9.37436778 46.5824345,8.68716755 C46.1210496,8.35944616 46.3471984,7.99301583 47.1798474,7.71917582 C48.7445,7.77828982 49.114327,7.83740382 49.2850164,8.14036306 C49.5979469,8.6945568 49.8255328,9.25613978 50.0246704,9.81772277 C50.1953598,10.268467 50.3091527,10.7266005 50.3660492,11.1773447 C50.2970434,11.3667 50.1345017,11.5529612 49.8824292,11.7315385 Z" id="Shape" fill="#64645A" fill-rule="nonzero"/>
      <path d="M47.6824169,11.8420157 L48.9244994,11.7544199 C49.1155891,11.4836692 49.2589063,11.2368083 49.46592,10.9580944 C50.055113,10.2732545 50.644306,9.58045132 51.2653473,8.89561141 C51.7589954,8.37799985 51.7908437,8.3859631 51.5201334,7.85242503 C50.644306,7.78871899 50.405444,7.85242503 50.1347337,8.12317569 C49.6410855,8.67264027 49.1952097,9.23803136 48.749334,9.80342245 C48.3034582,10.3688135 48.048672,10.7191967 47.7620376,11.1890288 C47.6793277,11.4040652 47.6525656,11.623547 47.6824169,11.8420157 Z" id="Shape" fill="#64645A" fill-rule="nonzero"/>
      <path d="M37.6517817,44.3991209 C37.6517817,44.3991209 37.6253165,34.4585714 38.3734177,29.6399451 C38.9886076,25.6705495 40.1582278,21.8414286 41.4113924,18.0388462 C42.2240506,15.5859341 44.3924051,8.9171978 47.6278481,8.77313187 C51.0455696,10.8431319 50.0658228,21.0907692 49.7924051,24.3170879 C49.4392405,28.4874176 48.1556962,39.1558791 47.2670886,43.2465934 C45.2278481,43.8076923 37.6517817,44.3991209 37.6517817,44.3991209 Z" id="Shape" fill="#64645A" fill-rule="nonzero"/>
      <path d="M39.835443,38.1208791 C39.835443,38.1208791 40.7734177,28.6087363 42.6341772,21.3144505 C43.9177215,16.2835165 45.6721519,13.060989 46.4696203,13.0534066 C48.4518987,13.0534066 47.8632911,21.3182418 47.6886076,23.4071978 C47.456962,26.1368681 46.2911392,34.8035714 45.7139241,37.4687912 C44.3772152,37.8213736 39.835443,38.1208791 39.835443,38.1208791 Z" id="Shape" fill="#3C3C32" fill-rule="nonzero"/>
      <path d="M58.9625339,8.19813187 L56.8117648,7.94781934 C56.8117648,7.68278254 56.8117648,7.43983214 56.6581384,7.21160601 C56.381611,6.52692761 56.1050835,5.83488709 55.705655,5.14284656 C55.4291275,4.62013509 55.3369517,4.62013509 56.4737868,4.18576923 C58.1329515,4.25202843 58.5323801,4.3109255 58.6860064,4.61277296 C58.9625339,5.17229509 59.1468855,5.73181722 59.3312372,6.29133935 C59.3312372,6.74042948 59.5463141,7.19688174 59.5463141,7.65333401 C59.4273879,7.8391122 59.2318369,8.02160515 58.9625339,8.19813187 Z" id="Shape" fill="#64645A" fill-rule="nonzero"/>
      <path d="M58.5599301,8.74406593 L57.1713493,8.61187569 C57.0069121,8.33971931 56.8607457,8.09866652 56.6780378,7.83428603 C56.1299138,7.14223124 55.5817898,6.44240055 54.9788534,5.75812165 C54.523118,5.44705335 54.4883624,5.0565529 54.8874994,4.7317033 C55.8923934,4.7317033 56.1664554,4.7317033 56.4222466,5.04273916 C56.8790165,5.60260371 57.2992449,6.17024416 57.7194733,6.73010872 C58.1397017,7.28997327 58.3406805,7.65544041 58.5964717,8.12199421 C58.6509673,8.32909108 58.6386729,8.53838669 58.5599301,8.74406593 Z" id="Shape" fill="#64645A" fill-rule="nonzero"/>
      <path d="M56.4796149,8.4710989 L58.2158966,8.27574042 C58.333213,8.00524406 58.4036028,7.75728907 58.5443824,7.52436165 C58.9901844,6.83309318 59.4359865,6.13431092 59.9521783,5.45055624 C60.3510539,4.91707731 60.3979804,4.9245911 59.6940824,4.45873626 C58.4036028,4.45873626 58.075117,4.53387414 57.8639476,4.83442565 C57.4650721,5.39044594 57.1365864,5.95398002 56.8315639,6.5175141 C56.5265415,7.08104817 56.3622986,7.4341962 56.221519,7.89253725 C56.2397674,8.08787379 56.32634,8.28193955 56.4796149,8.4710989 Z" id="Shape" fill="#64645A" fill-rule="nonzero"/>
      <path d="M65.8594937,46.4046703 C63.9987342,44.1299451 54.956962,39.0459341 54.3797468,38.5 C53.2405063,34.6670879 50.2253165,6.00934066 55.4772152,5.64538462 C59.9316456,5.33450549 61.0708861,13.7130769 61.8949367,16.6095604 C63.0797468,20.7798901 65.7113924,41.2524176 65.8594937,46.4046703 Z" id="Shape" fill="#64645A" fill-rule="nonzero"/>
      <path d="M62.5670886,40.3956044 C61.9822785,32.6804945 61.1012658,23.138022 60.6113924,20.487967 C60.0949367,17.6748901 57.9037975,7.52203297 55.978481,9.80054945 C54.0531646,12.0790659 56.4379747,33.4349451 56.9924051,40.5396703 L62.5670886,40.3956044 Z" id="Shape" fill="#3C3C32" fill-rule="nonzero"/>
      <path d="M66.4101266,44.1868132 C66.1101266,40.8581319 64.6367089,37.1275824 62.1721519,34.7884066 C59.133645,31.9296339 55.0779315,30.3998191 50.9050633,30.5384615 C44.6468354,30.6863187 42.5164557,31.9601648 39.3303797,36.5589011 C36.3987342,40.7974725 37.3481013,47.9325275 37.6481013,52.8042308 C37.9670886,57.9981868 40.5797468,64.9588462 45.0227848,67.9956044 C49.6632911,71.1688462 56.4151899,71.6617033 60.6759494,67.6468132 C64.5151899,64.0148352 67.1012658,51.7123626 66.4101266,44.1868132 Z" id="Shape" fill="#64645A" fill-rule="nonzero"/>
      <path d="M56.8936709,36.865989 C56.1607595,34.9400549 54.9683544,35.0234615 53.0962025,34.777033 C51.2620253,34.8718132 48.8012658,34.6405495 47.2556962,35.8234066 C45.7101266,37.0062637 45.356962,39.6146154 46.8759494,40.8695055 C48.6607595,42.3594505 54.2696203,42.9015934 56.3696203,40.7292308 C57.1405063,39.9292857 57.4329114,38.2687363 56.8936709,36.865989 Z" id="Shape" fill="#F01446" fill-rule="nonzero"/>
      <path d="M55.9044706,36.6276014 C57.9629347,36.5470195 58.0572155,38.1138887 57.9629347,38.8122647 C57.8686539,39.5106407 57.8136568,40.7417523 55.9987514,40.6298331 C54.183846,40.5179138 53.8774334,39.4211054 53.9874276,38.7854041 C54.0974219,38.1497029 53.8381497,36.71266 55.9044706,36.6276014 Z" id="Shape" fill="#6E1E3C" fill-rule="nonzero"/>
      <path d="M49.2056847,36.6276014 C51.269193,36.5470195 51.3633455,38.1138887 51.269193,38.8122647 C51.1750406,39.5106407 51.1201183,40.7417523 49.3076832,40.6298331 C47.4952482,40.5179138 47.1892527,39.4211054 47.2912512,38.7854041 C47.3932497,38.1497029 47.1421764,36.71266 49.2056847,36.6276014 Z" id="Shape" fill="#6E1E3C" fill-rule="nonzero"/>
      <path d="M54.8050633,43.0494505 C54.8050633,43.0494505 56.8632911,43.2996703 57.9873418,44.3422527 C58.80087,45.197658 59.1576611,46.3887555 58.9481013,47.5496154 C58.4240506,49.0850549 57.2392405,50.0745604 55.8075949,50.7418132 C53.043038,52.0308242 48.9721519,52.5047253 46.4050633,50.5067582 C43.3139241,48.0993407 45.1481013,45.2862637 48.0949367,44.0313736 L48.1936709,43.9896703 L48.7253165,43.7887363 L49.3329114,44.0124176 L50.035443,43.402033 L53.278481,43.0494505 L54.8050633,43.0494505 Z" id="Shape" fill="#000000" fill-rule="nonzero"/>
      <path d="M53.278481,43.0512166 C53.278481,43.0512166 53.7662222,45.5742258 55.4635615,47.058022 C56.156154,46.05771 57.2974684,43.0456593 57.2974684,43.0456593 L53.278481,43.0512166 Z" id="Shape" fill="#FFFFFF" fill-rule="nonzero"/>
      <path d="M52.3752203,47.3954396 C52.643356,46.0622424 52.7655574,44.7228257 52.7412874,43.3830769 C52.0121802,43.4252667 51.2917465,43.4984562 50.5879518,43.6018361 C49.9321431,43.6783312 49.3039384,43.8042974 48.7253165,43.9753273 C48.7253165,43.9753273 52.05222,47.272721 52.3752203,47.3954396 Z" id="Shape" fill="#FFFFFF" fill-rule="nonzero"/>
      <path d="M40.9405774,37.623519 L41.2081648,37.1162088 C42.0614149,37.6926977 42.8641769,38.2691866 43.6568412,38.8456754 C44.1617229,39.2088634 44.1617229,39.3472208 44.020356,40.1081861 L40.3751099,41.1285714 L40.0822785,40.8345621 C40.1378155,40.6904399 40.1529619,40.5463177 40.2135477,40.5174932 C40.5082595,40.3462585 40.815776,40.20542 41.1324325,40.0966563 C41.6373142,39.9410043 42.142196,39.8487661 42.6470777,39.7104088 C42.7979529,39.6496231 42.9433556,39.5724021 43.081276,39.4798132 C42.5864919,38.505547 41.5110938,38.4824874 40.9405774,37.623519 Z" id="Shape" fill="#000000" fill-rule="nonzero"/>
      <path d="M63.1769268,36.3124725 L63.5907222,36.7497246 C62.851063,37.5149158 61.8269195,37.969658 61.1079501,38.6780063 C61.1585073,38.9826569 61.4258358,39.2295031 61.7803675,39.2989043 C62.2750391,39.4567377 62.7791861,39.5924732 63.2907206,39.7055488 C63.5907222,39.7798816 63.9062411,39.8148618 64.0303797,40.1821535 C63.916586,40.2302513 63.7717577,40.3439368 63.6786537,40.3220742 C62.4114054,39.9766451 61.0924328,39.758019 60.0113924,38.8966324 C60.0838066,38.7435942 60.1096688,38.507478 60.2493247,38.4375177 C61.3133858,37.8209257 62.2950175,37.1083932 63.1769268,36.3124725 Z" id="Shape" fill="#000000" fill-rule="nonzero"/>
    </g>
  </g>
</svg>