<svg width="103px" height="94px" viewBox="0 0 103 94" version="1.1" xml:space="preserve" xmlns="http://www.w3.org/2000/svg" xmlns:xlink="http://www.w3.org/1999/xlink">
  <defs/>
  <g>
    <title>bat-a</title>
    <desc>Created with Sketch.</desc>
    <g id="bat-a" stroke="none" stroke-width="1" fill="none" fill-rule="evenodd">
      <path d="M51.3758065,61.081393 L43.5177419,60.1285572 C43.5704301,60.2646766 48.6811828,78.0736318 48.6811828,78.0736318 L47.6010753,78.1795025 C47.6010753,78.1795025 47.7177419,78.4441791 47.6876344,78.4933333 L50.7247312,78.3723383 C50.7247312,78.3723383 51.3758065,61.4254726 51.3758065,61.081393 Z" id="Shape" fill="#3C3C32" fill-rule="nonzero"/>
      <path d="M55.7413978,78.7088557 C55.7634011,78.5999743 55.7961805,78.4935749 55.8392473,78.3912438 C55.5405888,78.3738859 55.244357,78.3270264 54.9548387,78.2513433 C54.9548387,78.0093532 55.1580645,77.7144279 55.7639785,76.0545274 C57.6456989,70.8479602 61.7854839,60.0113433 61.9962366,59.2589055 L51.9591398,58.960199 C51.9591398,59.3383085 52.3354839,64.2991045 52.2489247,64.6847761 C52.2489247,64.6847761 51.9817204,64.3066667 51.9854839,64.3293532 C52.0456989,64.9872637 52.9790323,78.561393 52.9790323,78.561393 C52.9790323,78.561393 55.5155914,78.7088557 55.7413978,78.7088557 Z" id="Shape" fill="#3C3C32" fill-rule="nonzero"/>
      <path d="M47.851295,9.10394693 L45.9376344,8.78439527 C45.9376344,8.5229439 46.2067429,8.29054269 46.2665448,8.05814148 C46.4459505,7.37546292 46.6253562,6.68552182 46.715059,6.00284325 C46.715059,5.47994053 46.715059,5.47994053 48.0606016,5.10228856 C49.6154509,5.2257517 49.9742622,5.29837708 49.9144603,5.60340367 C49.9144603,6.15535655 49.6453518,6.70730943 49.4360452,7.25926231 C49.2566395,7.70227712 49.0473329,8.14529193 48.7782244,8.58830674 C48.5518869,8.76827013 48.2408557,8.94129321 47.851295,9.10394693 Z" id="Shape" fill="#64645A" fill-rule="nonzero"/>
      <path d="M48.6895126,9.49718076 L46.8554495,9.27486641 C46.8554495,9.00808918 46.7026109,8.77095387 46.5752454,8.53381856 C46.1676758,7.84464406 45.7855793,7.15546957 45.3270635,6.47370555 C44.8632684,6.14943717 45.0179626,5.77816484 45.7346331,5.49552239 C47.1356536,5.53998526 47.492277,5.59185861 47.6705887,5.89568823 C48.0272121,6.45147411 48.3074162,7.00726 48.5621472,7.56304588 C48.8168781,8.11883177 48.9442436,8.47453473 49.046136,8.92657392 C49.0069524,9.12026951 48.8872045,9.31186921 48.6895126,9.49718076 Z" id="Shape" fill="#64645A" fill-rule="nonzero"/>
      <path d="M46.4898242,9.5387728 L47.8027298,9.42892336 C47.9902878,9.15429974 48.1266936,8.91106169 48.3142515,8.64428446 C48.893976,7.95380223 49.4566499,7.25547361 50.0193237,6.57283777 C50.4789237,6.26717829 50.5441208,5.87114779 50.1898309,5.53711443 C49.2690919,5.53711443 49.0133311,5.53711443 48.7405195,5.83527721 C48.2630993,6.38452444 47.8197806,6.94946444 47.3935125,7.51440445 C46.9672444,8.07934445 46.7285343,8.43243196 46.4557228,8.89536891 C46.4168757,9.10977849 46.4283087,9.32548967 46.4898242,9.5387728 Z" id="Shape" fill="#64645A" fill-rule="nonzero"/>
      <path d="M37.8913978,42.4027861 C37.8913978,42.4027861 37.4736559,32.5000995 38.0231183,27.6565174 C38.4747312,23.6750249 39.4833333,19.8107463 40.5822581,15.9691542 C41.2897849,13.4963184 43.1752688,6.76218905 46.3741935,6.48995025 C49.8553763,8.41830846 49.2758065,18.6688557 49.1327957,21.879005 C48.9446237,26.0722388 48.1016129,36.7349254 47.3827957,40.8449751 C45.3693548,41.5028856 37.8913978,42.4027861 37.8913978,42.4027861 Z" id="Shape" fill="#64645A" fill-rule="nonzero"/>
      <path d="M39.8069892,36.0429851 C39.8069892,36.0429851 40.3602151,26.5259701 41.9107527,19.1868657 C42.9833333,14.120199 44.5790323,10.838209 45.3806452,10.7966169 C47.3451613,10.7020896 47.0930108,18.9789055 46.9989247,21.0698507 C46.8784946,23.7960199 46.0693548,32.4849751 45.6026882,35.158209 C44.2930108,35.5779104 39.8069892,36.0429851 39.8069892,36.0429851 Z" id="Shape" fill="#3C3C32" fill-rule="nonzero"/>
      <path d="M60.0684978,7.09618574 L57.7949551,6.83282248 C57.7949551,6.56945922 57.7949551,6.33535855 57.7949551,6.10125788 C57.5351217,5.4209028 57.3077674,4.73323207 56.9829756,4.04556135 C56.5151512,3.7158405 56.8478613,3.35501835 57.8599135,3.09452736 C59.6462685,3.16768382 60.0684978,3.23352464 60.1984145,3.53346612 C60.4257688,4.08945522 60.5556855,4.64544432 60.6856023,5.20143342 C60.6856023,5.64768783 60.8479982,6.10125788 60.6856023,6.55482793 C60.5521305,6.73907133 60.3456025,6.92024895 60.0684978,7.09618574 Z" id="Shape" fill="#64645A" fill-rule="nonzero"/>
      <path d="M59.7387464,7.61797678 L58.3068983,7.47204298 C58.1373373,7.20321757 58.0242966,6.96511505 57.8358956,6.70397036 C57.3083726,6.012705 56.7808496,5.32143963 56.1968063,4.637855 C55.7452771,4.32222087 55.7452771,3.93195253 56.1968063,3.61631841 C57.2330122,3.61631841 57.4967737,3.61631841 57.741695,3.94658964 C58.1938576,4.49960193 58.60834,5.06029494 58.9851421,5.62098796 C59.3619443,6.18168097 59.5880255,6.54267511 59.8329469,7.00351868 C59.8577505,7.20912903 59.8261545,7.41522558 59.7387464,7.61797678 Z" id="Shape" fill="#64645A" fill-rule="nonzero"/>
      <path d="M57.6233404,7.39111111 L59.2873779,7.20306326 C59.4205009,6.93227434 59.4870624,6.69157309 59.6645597,6.45087183 C60.1083031,5.76637764 60.5742335,5.07436153 61.1067255,4.38234542 C61.5624936,4.06354396 61.4952262,3.68726025 60.9292282,3.38945274 C59.7089341,3.38945274 59.3761266,3.45714996 59.1764421,3.75802653 C58.7770731,4.31464819 58.4220784,4.87126984 58.0892709,5.43541341 C57.7564634,5.99955698 57.6011532,6.35308695 57.4236559,6.81192371 C57.4324158,7.00677554 57.4993181,7.20082665 57.6233404,7.39111111 Z" id="Shape" fill="#64645A" fill-rule="nonzero"/>
      <path d="M66.1134409,45.4125373 C64.3145161,43.1098507 55.4666667,37.8503483 54.905914,37.2831841 C53.8446237,33.4378109 51.4849462,4.7960199 56.6973118,4.54646766 C61.1155914,4.33094527 62.0677419,12.7098507 62.8204301,15.6175124 C63.9080645,19.799403 66.072043,40.2702488 66.1134409,45.4125373 Z" id="Shape" fill="#64645A" fill-rule="nonzero"/>
      <path d="M62.9784946,39.3438806 C62.5682796,31.641791 61.8983871,22.1058706 61.4731183,19.4553234 C61.0215054,16.6346269 59.0645161,6.46726368 57.1112903,8.69432836 C55.1580645,10.921393 57.0586022,32.2694527 57.4537634,39.3703483 L62.9784946,39.3438806 Z" id="Shape" fill="#3C3C32" fill-rule="nonzero"/>
      <path d="M66.1473118,40.3420896 C65.85,37.0185075 64.3897849,33.2979104 61.9510753,30.9687562 C58.9393899,28.1162241 54.9177622,26.5915099 50.7811828,26.7339303 C44.5827957,26.881393 42.4677419,28.1480597 39.3102151,32.7383085 C36.4048387,36.961791 37.3456989,44.081592 37.6430108,48.9365174 C37.9591398,54.1166169 40.5483871,61.0587065 44.9516129,64.0911443 C49.5505376,67.2521393 56.2419355,67.7436816 60.4682796,63.7432836 C64.2731183,60.1247761 66.8209677,47.8551244 66.1473118,40.3420896 Z" id="Shape" fill="#64645A" fill-rule="nonzero"/>
      <path d="M50.5820809,50.3771144 L51.6617571,50.2825871 L52.871147,55.0278607 C52.871147,55.0278607 52.7566937,56.918408 51.207759,57.0999005 C49.6588243,57.281393 48.888172,54.4531343 48.888172,54.4531343 L50.5820809,50.3771144 Z" id="Shape" fill="#828278" fill-rule="nonzero"/>
      <path d="M56.7198925,36.0732338 C55.9897849,34.1562189 54.8080645,34.2356219 52.9564516,33.9936318 C51.1387097,34.0843781 48.7,33.8575124 47.1682796,35.0372139 C45.6365591,36.2169154 45.2865591,38.8183085 46.7919355,40.0698507 C48.5607527,41.5558209 54.1193548,42.0965174 56.2005376,39.9261692 C56.9569892,39.1321393 57.2505376,37.4760199 56.7198925,36.0732338 Z" id="Shape" fill="#F01446" fill-rule="nonzero"/>
      <path d="M55.7345032,35.8393179 C57.7742895,35.7543985 57.8755002,37.3187023 57.7742895,38.0159349 C57.6730787,38.7131674 57.626366,39.9422633 55.8279285,39.8305273 C54.029491,39.7187913 53.7336441,38.6237787 53.8348549,37.9891182 C53.9360657,37.3544578 53.6869315,35.9063594 55.7345032,35.8393179 Z" id="Shape" fill="#6E1E3C" fill-rule="nonzero"/>
      <path d="M49.0970316,35.8393179 C51.1420497,35.7543985 51.2353585,37.3187023 51.1420497,38.0159349 C51.0487409,38.7131674 50.9943108,39.9422633 49.1981162,39.8305273 C47.4019216,39.7187913 47.098668,38.6237787 47.1997525,37.9891182 C47.300837,37.3544578 47.0597893,35.9063594 49.0970316,35.8393179 Z" id="Shape" fill="#6E1E3C" fill-rule="nonzero"/>
      <path d="M54.9096774,44.6778427 C53.2349462,43.4278529 52.0005376,43.4047761 49.9344086,43.4047761 C49.0086022,44.1201549 47.9209677,44.7855342 48.5306452,46.1239849 C50.9354839,48.1893528 53.7467742,47.7970483 54.9096774,44.6778427 Z" id="Shape" fill="#000000" fill-rule="nonzero"/>
      <path d="M53.3867384,43.2346269 C52.0093037,43.4165895 50.6675855,43.7845949 49.4037634,44.3270738 C49.7064695,44.7209493 51.9687993,47.3443083 52.5343817,47.2328342 C53.0999642,47.12136 53.2991129,43.9926513 53.3867384,43.2346269 Z" id="Shape" fill="#FFFFFF" fill-rule="nonzero"/>
      <path d="M52.8644392,47.3730482 C54.2220857,47.7129357 55.5470178,44.6794396 55.7351254,44.2545802 C54.4935297,43.6396619 53.1265117,43.3480254 51.7521505,43.4048614 C51.7766863,43.5323192 52.3737236,47.1011382 52.8644392,47.3730482 Z" id="Shape" fill="#FFFFFF" fill-rule="nonzero"/>
      <path d="M62.1760242,36.4173134 L62.6811894,36.5883344 C62.6331793,38.1253243 62.1555497,39.5013447 61.424243,40.2095168 C61.2758533,40.3541047 61.1102266,40.4257512 60.942944,40.4177162 C60.6565347,40.4267597 60.3702814,40.3869376 60.0877431,40.2987451 C59.6514401,40.1945881 59.2576675,39.7574455 58.9999491,39.0911417 C58.7422307,38.4248378 58.6435618,37.5888251 58.7273772,36.7816624 C58.7273772,36.7073055 58.779087,36.6403842 58.8387521,36.4991061 C58.9063727,36.5957701 58.9938816,36.6626913 59.0336584,36.7890981 C59.125145,37.0939615 59.1887878,37.4360033 59.2802744,37.7557381 C59.5397804,38.8647123 60.1624886,39.5151285 60.8037252,39.3469764 C61.4224744,39.2470901 61.93315,38.401212 62.0606715,37.2649824 C62.0964707,37.056783 62.1203367,36.8783264 62.1760242,36.4173134 Z" id="Shape" fill="#000000" fill-rule="nonzero"/>
      <path d="M44.8131366,36.9735242 L45.1722902,37.1677274 C45.2098754,37.2917393 45.228746,37.4267579 45.2275446,37.5630697 C45.0775705,38.8333005 44.4404596,39.8475109 43.606749,40.1431981 C43.1787797,40.3544767 42.7122127,40.2951305 42.3138244,39.9787411 C41.9154362,39.6623516 41.619329,39.116002 41.4932684,38.4647275 C41.4357137,38.2288703 41.394063,37.9848869 41.368946,37.7364654 C41.3182962,37.2925723 41.290669,36.8486793 41.2446237,36.2660697 C41.4518276,36.3354279 41.6498225,36.3076846 41.7050769,36.4394654 C41.844457,36.6891137 41.9479372,36.9796039 42.0089761,37.2925723 C42.1102758,37.7225937 42.1655302,38.1734226 42.2484118,38.6797382 L42.9206736,39.2762194 C43.7911976,39.1143485 44.5250281,38.2214444 44.8131366,36.9735242 Z" id="Shape" fill="#000000" fill-rule="nonzero"/>
      <path d="M65.5263441,36.8067662 C68.8645161,42.8035821 68.7478495,52.6873632 67.4080645,59.2021891 C66.0682796,65.7170149 61.6349462,71.6608955 55.7677419,76.0545274 C54.3715054,73.3018905 51.627957,50.2825871 51.627957,50.2825871 C51.627957,50.2825871 62.9784946,45.3709453 65.5263441,36.8067662 Z" id="Shape" fill="#C8C8BE" fill-rule="nonzero"/>
      <path d="M48.0263441,75.839005 C44.6392473,75.1243781 41.9672043,70.6853731 40.3827957,68.2163184 C38.6069233,65.4958564 37.3203589,62.4832039 36.5817204,59.3156219 C35.8290323,56.041194 35.1177419,52.4529353 35.0349462,49.1066667 C34.8543011,41.9641791 37.8048387,35.959801 37.8048387,35.959801 C37.8048387,35.959801 39.0467742,41.3629851 41.7489247,44.4597015 C45.0870968,48.2861692 50.5591398,50.3771144 50.5591398,50.3771144 C49.7016578,55.4164809 49.2835841,60.5214227 49.3096774,65.6338308 C49.3210254,67.3012814 49.2191762,68.9675684 49.0048387,70.6210945 C48.7978495,72.2507463 48.8806452,74.360597 48.0263441,75.839005 Z" id="Shape" fill="#C8C8BE" fill-rule="nonzero"/>
      <path d="M51.627957,50.4151301 C51.627957,50.4151301 64.4612903,49.9264674 65.9817204,50.0219532 C67.5021505,50.117439 68.683871,49.8309816 68.872043,52.0608558 C69.0602151,54.29073 66.7607527,53.9986558 66.7607527,53.9986558 C66.7607527,53.9986558 56.2908602,53.8020674 51.627957,50.4151301 Z" id="Shape" fill="#F0E6D2" fill-rule="nonzero"/>
      <path d="M65.0408602,64.7301493 C65.0408602,64.7301493 55.3048387,55.3681592 51.627957,50.2825871 C51.627957,50.2825871 57.6494624,64.0306468 63.6483871,67.959204 C63.6483871,67.959204 64.5215054,68.9725373 65.627957,67.4071642 C66.7344086,65.841791 65.0408602,64.7301493 65.0408602,64.7301493 Z" id="Shape" fill="#F0E6D2" fill-rule="nonzero"/>
      <path d="M50.5591398,50.5566071 C50.5591398,50.5566071 39.3365591,49.5162686 37.5037634,49.5952228 C35.6709677,49.6741771 34.2747312,50.3986986 34.3349462,51.8802521 C34.3951613,53.3618056 35.3397849,53.4036049 37.1086022,53.5615134 C38.8774194,53.719422 45.9865591,53.3571612 50.5591398,50.5566071 Z" id="Shape" fill="#F0E6D2" fill-rule="nonzero"/>
      <path d="M38.6478495,64.0117413 C39.5887097,63.0021891 46.9537634,56.0714428 50.5629032,50.3771144 C50.5629032,50.3771144 47.6349462,56.8049751 44.4586022,61.7960199 C43.1112903,63.9058706 40.5258065,66.4883582 40.044086,67.0139303 C38.4182796,68.7759204 37.9327957,68.9385075 37.1537634,67.7966169 C36.3747312,66.6547264 37.7069892,65.0099502 38.6478495,64.0117413 Z" id="Shape" fill="#F0E6D2" fill-rule="nonzero"/>
      <path d="M48.6774194,46.2148547 C48.6774194,46.2148547 50.2430108,44.6845838 51.4435484,44.6845838 C52.644086,44.6845838 54.4016129,46.2607629 54.4016129,46.2607629 L54.8532258,43.5062753 L51.4360215,42.2591045 L48.8317204,42.8712128 L48.6774194,46.2148547 Z" id="Shape" fill="#64645A" fill-rule="nonzero"/>
    </g>
  </g>
</svg>