<svg width="103px" height="94px" viewBox="0 0 103 94" version="1.1" xml:space="preserve" xmlns="http://www.w3.org/2000/svg" xmlns:xlink="http://www.w3.org/1999/xlink">
  <defs/>
  <g>
    <title>bat-b</title>
    <desc>Created with Sketch.</desc>
    <g id="bat-b" stroke="none" stroke-width="1" fill="none" fill-rule="evenodd">
      <path d="M38.2673846,42.7206809 C38.2673846,42.7206809 34.223,42.3722553 31.8973846,54.5747234 C29.5717692,66.7771915 30.8646154,79.4038298 30.8646154,79.4038298 C31.1661538,80.8202553 33.7744615,89.3301702 34.7393846,90.4398298 C35.0710769,87.7395319 35.6703846,84.2931489 37.3476923,82.1079149 C36.5938462,79.6272766 36.6315385,74.5978298 41.1847692,73.1738298 C42.4436923,72.7951064 45.7417692,72.9200851 45.7417692,72.9200851 L49.6014615,73.9994468 L45.6663846,57.7332766 C45.6663846,57.7332766 39.3943846,47.0835745 38.2673846,42.7206809 Z" id="Shape" fill="#C8C8BE" fill-rule="nonzero"/>
      <path d="M50.2384615,75.9271489 C50.2384615,75.9271489 34.0307692,67.0347234 32.1951538,58.5702553 L34.0797692,53.4499149 C34.0797692,53.4499149 36.6880769,63.1868936 40.7286923,67.6671915 C42.896,70.0682979 49.7748462,74.8629362 49.7748462,74.8629362 L50.2384615,75.9271489 Z" id="Shape" fill="#F0E6D2" fill-rule="nonzero"/>
      <path d="M37.3476923,82.1079149 C37.3476923,82.1079149 31.4224615,74.4198298 30.8382308,68.3413191 L31.3244615,74.8629362 C32.6132,77.7996148 34.7010494,80.3109621 37.3476923,82.1079149 Z" id="Shape" fill="#F0E6D2" fill-rule="nonzero"/>
      <path d="M33.0130769,42.5464681 C32.0369018,44.4772682 31.2224464,46.4863951 30.5781538,48.5530213 C29.2009874,53.4578267 28.4126444,58.5105376 28.2299231,63.6034894 C27.363,81.365617 31.7993846,91.1594043 33.4201538,92.7651915 L33.5068462,92.7045957 C33.3824615,92.3675319 32.4137692,90.33 32.7077692,90.0042979 C33.0017692,89.6785957 34.1777692,92.1251489 34.4265385,91.9471489 C34.6753077,91.7691489 33.2279231,89.6937447 33.5520769,89.3642553 C33.8762308,89.034766 34.5509231,90.5496596 34.7393846,90.4322553 C32.2177692,82.967617 31.8182308,75.442383 32.8170769,67.6482553 C33.3259231,63.6489362 33.5973077,59.7973191 34.7393846,55.9078298 C35.2406923,54.1997872 35.6854615,52.5220426 36.3375385,50.8556596 C36.7446154,49.8028085 37.5474615,48.5227234 37.5813846,47.382766 L39.8203077,32.6731489 C39.6356154,32.8322128 36.1264615,36.1271064 33.0130769,42.5464681 Z" id="Shape" fill="#828278" fill-rule="nonzero"/>
      <path d="M73.0686923,54.8511915 C73.1704615,53.9649787 65.0477692,40.7664681 65.0477692,40.7664681 L57.7769231,62.2287234 L52.9786923,75.7870213 C52.9786923,75.7870213 59.6992308,72.0755319 62.9596154,73.9312766 C66.22,75.7870213 64.7085385,80.1234043 64.7085385,80.1234043 C66.0723846,80.7616368 67.2335485,81.7671049 68.0631538,83.0282128 C68.9112308,84.2817872 69.3371538,86.7851489 69.846,87.8493617 C71.071,86.1337447 73.0008462,84.1037872 73.3513846,82.0245957 C73.815,79.2977872 73.3513846,76.1127234 73.325,73.3594043 C73.2684615,69.4131064 73.1968462,65.4668085 73.1327692,61.5205106 C73.0950769,59.3466383 72.8199231,57.0212766 73.0686923,54.8511915 Z" id="Shape" fill="#C8C8BE" fill-rule="nonzero"/>
      <path d="M52.8279231,76.0369787 C52.8279231,76.0369787 71.1313077,65.3645532 70.0080769,49.1930638 L72.6050769,57.5060426 C69.4045668,63.5429193 64.8428649,68.7437671 59.2846154,72.6928511 C57.3736154,74.0638298 55.1987692,74.9273191 52.8279231,76.0369787 Z" id="Shape" fill="#F0E6D2" fill-rule="nonzero"/>
      <path d="M64.7085385,80.1234043 C64.7085385,80.1234043 74.8854615,68.5458298 72.9782308,59.5890213 L73.9921538,62.1984255 C73.9921538,62.1984255 75.9634615,71.2802128 64.7085385,80.1234043 Z" id="Shape" fill="#F0E6D2" fill-rule="nonzero"/>
      <path d="M75.0852308,53.4537021 C74.1291402,49.6951098 72.6803932,46.0807773 70.777,42.7055319 C69.1848227,40.019115 67.3095107,37.5126814 65.1834615,35.2295319 C64.5389231,34.5137447 62.2133077,31.347617 61.2596923,31.3851524 L64.1883846,43.2395319 C64.1883846,43.2395319 66.9323846,48.0985532 67.6937692,49.8141702 C69.288297,53.4660896 70.4508855,57.2933733 71.1576923,61.2175319 C72.0141246,65.8561695 72.2045216,70.5941915 71.7230769,75.2871064 C71.4931538,77.5594468 71.1275385,79.8317872 70.7920769,82.1041277 C70.4716923,84.2893617 69.5859231,86.4442979 69.5143077,88.6408936 C69.699,88.7507234 70.3058462,87.6297021 70.4377692,87.709234 C70.63,88.1599149 69.9477692,89.8376596 70.0947692,90.2883404 C70.4716923,90.1179149 70.9767692,88.8378298 71.5044615,89.0120426 C71.9982308,89.4362128 70.7807692,90.6670638 70.7996154,91.1480426 C72.3073077,90.5345106 73.5096923,86.9101277 74.109,85.5315745 C74.9495385,83.5925106 75.7787692,81.6269362 76.0426154,79.521234 C77.8744615,65.0085532 76.1255385,57.4568085 75.0852308,53.4537021 Z" id="Shape" fill="#828278" fill-rule="nonzero"/>
      <path d="M48.3726923,63.1793191 L40.5138462,59.0133617 C40.9586154,62.0204255 44.0908462,69.9963404 46.7217692,72.9465957 C47.5434615,73.8631064 50.1140769,75.9271489 50.1140769,75.9271489 C50.1140769,75.9271489 50.1140769,77.1731489 50.0726154,78.532766 L50.6756923,78.532766 C50.6530769,75.8551915 50.8490769,72.5716596 50.8490769,72.5716596 C50.8490769,72.5716596 48.7307692,64.3344255 48.3726923,63.1793191 Z" id="Shape" fill="#3C3C32" fill-rule="nonzero"/>
      <path d="M54.3506923,62.9028511 C54.3506923,63.0164681 52.2436923,72.7496596 52.2436923,72.7496596 C52.2436923,72.7496596 52.1645385,77.4723404 52.1381538,78.532766 L52.8015385,78.532766 C52.8015385,77.8283404 52.8279231,76.7414043 52.8279231,76.0331915 C53.4573846,75.8514043 55.9186923,74.3327234 57.7279231,71.5074468 C59.3675385,68.9624255 61.6554615,62.6642553 61.8062308,60.248 L54.3506923,62.9028511 Z" id="Shape" fill="#3C3C32" fill-rule="nonzero"/>
      <path d="M46.8566505,8.25811348 L44.4269476,7.98068191 C44.4269476,7.71785201 44.4269476,7.4769246 44.4269476,7.25059885 C44.4269476,6.56432076 44.180456,5.87804268 43.9339644,5.1917646 C43.4883704,4.85731725 43.9305277,4.49895622 45.0959962,4.24995745 C46.9975028,4.34486825 47.4200599,4.41057572 47.5256991,4.70990978 C47.5256991,5.26477291 47.7017645,5.81963604 47.7369776,6.37449917 C47.7721907,6.9293623 47.7369776,7.27980217 47.7369776,7.72515284 C47.5356969,7.90878653 47.2405877,8.0874492 46.8566505,8.25811348 Z" id="Shape" fill="#64645A" fill-rule="nonzero"/>
      <path d="M46.7451307,8.74666667 L45.194549,8.57934327 C45.0291536,8.31314694 44.9257814,8.06976745 44.7603861,7.81878235 C44.2435255,7.12667192 43.7473393,6.43456148 43.1891299,5.74245105 C42.754967,5.21766402 42.6929437,5.22526962 43.1891299,4.73851064 C44.3262232,4.73851064 44.6156651,4.78414429 44.8637582,5.08836866 C45.2772467,5.64357813 45.6700607,6.20639321 46.0422003,6.76920828 C46.41434,7.33202336 46.6004098,7.68188138 46.807154,8.14582354 C46.8502494,8.34630902 46.8294335,8.54796094 46.7451307,8.74666667 Z" id="Shape" fill="#64645A" fill-rule="nonzero"/>
      <path d="M44.4469011,8.59139007 L45.9861504,8.42406667 C46.150337,8.15787035 46.2529536,7.91449086 46.4171402,7.66350575 C46.9302233,6.97139532 47.4227831,6.27928489 47.9974362,5.59478006 C48.4808386,5.28139196 48.4808386,4.89662214 47.9974362,4.58323404 C46.8686534,4.58323404 46.5608035,4.6288677 46.3350469,4.93309206 C45.9040571,5.48830153 45.514114,6.05111661 45.1446941,6.61393169 C44.7752743,7.17674677 44.5905644,7.52660479 44.3853311,7.99054695 C44.3535798,8.19109538 44.374199,8.39231159 44.4469011,8.59139007 Z" id="Shape" fill="#64645A" fill-rule="nonzero"/>
      <path d="M39.3076923,42.2510638 C39.3076923,42.2510638 37.9093077,32.4231915 37.9771538,27.5490213 C38.0374615,23.5383404 38.6593846,19.5958298 39.3755385,15.6495319 C39.8353846,13.1120851 41.0490769,6.21174468 44.2076923,5.62093617 C47.8676154,7.19642553 48.3048462,17.4711915 48.4782308,20.6865532 C48.7081538,24.8828085 48.9192308,35.5931064 48.6101538,39.7628511 C46.6803077,40.6111915 39.3076923,42.2510638 39.3076923,42.2510638 Z" id="Shape" fill="#64645A" fill-rule="nonzero"/>
      <path d="M40.593,35.7256596 C40.593,35.7256596 40.2160769,26.185617 41.0264615,18.7134043 C41.5956154,13.5589787 42.8620769,10.1277447 43.6649231,10.002766 C45.6098462,9.71114894 46.179,17.9862553 46.3033846,20.0805957 C46.4541538,22.8111915 46.5031538,31.5483404 46.3033846,34.2637872 C45.0218462,34.8167234 40.593,35.7256596 40.593,35.7256596 Z" id="Shape" fill="#3C3C32" fill-rule="nonzero"/>
      <path d="M60.2948334,8.20130496 L57.8555606,7.9238734 C57.8555606,7.65374267 57.8555606,7.42011608 57.8555606,7.19379033 C57.8555606,6.50751225 57.6080981,5.81393334 57.3606357,5.13495609 C56.9132866,4.80050874 57.3571855,4.44214771 58.5272444,4.19314894 C60.4362405,4.2807589 60.8604619,4.34646638 60.9665172,4.65310127 C61.1079243,5.2079644 61.1786279,5.76282753 61.1786279,6.31769066 C61.1786279,6.77034216 61.1786279,7.21569283 61.1786279,7.66834433 C60.9765544,7.85197802 60.6802828,8.03064069 60.2948334,8.20130496 Z" id="Shape" fill="#64645A" fill-rule="nonzero"/>
      <path d="M60.1725412,8.69743262 L58.6213994,8.52979112 C58.4559443,8.25546865 58.3525348,8.01162646 58.1870797,7.76778427 C57.6700324,7.07435803 57.1736671,6.3809318 56.615256,5.69512564 C56.1809363,5.16934091 56.1188906,5.17696098 56.615256,4.6892766 C57.75276,4.6892766 58.0423065,4.73499701 58.2904892,5.03217968 C58.7248089,5.59606475 59.0970829,6.15232975 59.4693569,6.71621482 C59.841631,7.28009988 60.027768,7.6382431 60.2345869,8.10306728 C60.2755392,8.30141223 60.2547217,8.50083257 60.1725412,8.69743262 Z" id="Shape" fill="#64645A" fill-rule="nonzero"/>
      <path d="M57.8722312,8.54215603 L59.4321738,8.37451452 C59.5758527,8.10781212 59.6784806,7.86396993 59.8632106,7.61250767 C60.3558241,6.91908144 60.8484375,6.22565521 61.4231532,5.53984904 C61.9071363,5.22863826 61.9071363,4.84521078 61.4231532,4.534 C60.2942474,4.534 59.986364,4.57972041 59.7605828,4.88452315 C59.329546,5.44078815 58.9395603,5.99705315 58.5701002,6.56093822 C58.2006401,7.12482329 58.0159101,7.48296651 57.8106545,7.94779069 C57.780217,8.14618862 57.800836,8.34521214 57.8722312,8.54215603 Z" id="Shape" fill="#64645A" fill-rule="nonzero"/>
      <path d="M64.8819231,46.9169362 C63.1744615,44.5423404 54.5278462,38.9145106 53.9888462,38.3312766 C53.0804615,34.4417872 51.8592308,5.68153191 57.0833846,5.63987234 C61.516,5.60578723 62.1341538,14.0285957 62.7711538,16.9674894 C63.6908462,21.1978298 65.0477692,41.7738723 64.8819231,46.9169362 Z" id="Shape" fill="#64645A" fill-rule="nonzero"/>
      <path d="M61.9833846,40.7361702 C61.8778462,33.0102128 61.6064615,23.4398723 61.2672308,20.7698723 C60.9242308,17.9294468 59.3826154,7.67361702 57.3283846,9.82476596 C55.2741538,11.9759149 56.3370769,33.419234 56.4539231,40.539234 L61.9833846,40.7361702 Z" id="Shape" fill="#3C3C32" fill-rule="nonzero"/>
      <path d="M65.7601538,40.7361702 C65.4623846,37.4109787 63.9999231,33.6843404 61.5536923,31.347617 C58.5377795,28.4918415 54.5122238,26.9636305 50.3703846,27.1021277 C44.1586923,27.2498298 42.0441538,28.5223404 38.8817692,33.1162553 C35.9719231,37.350383 36.9142308,44.4779574 37.212,49.3445532 C37.5286154,54.5330638 40.1218462,61.4864255 44.5318462,64.52 C49.1378462,67.6899149 55.8395385,68.1822553 60.0686154,64.1715745 C63.8793077,60.5434043 66.4461538,48.2538298 65.7601538,40.7361702 Z" id="Shape" fill="#64645A" fill-rule="nonzero"/>
      <path d="M46.0923077,45.5366051 C46.13,45.0356578 46.0923077,44.5958016 46.6953846,44.3880918 C48.5423077,43.7649623 52.3115385,44.1070726 53.6307692,43.9971086 C54.95,43.8871445 56.4162308,44.5958016 56.4011538,45.8420607 C56.3860769,47.0883198 55.9488462,47.9069409 55.1723846,47.9435956 C53.7476154,48.0169049 52.3228462,48.0046867 50.9018462,47.9435956 C49.7484615,47.9435956 48.5988462,47.8091951 47.453,47.6259217 C47.0911538,47.5770488 45.9415385,47.6014853 46.0923077,45.5366051 Z" id="Shape" fill="#000000" fill-rule="nonzero"/>
      <path d="M46.9102308,43.6031064 C46.9102308,43.6031064 48.4485504,47.5825338 48.8872347,47.6111114 C49.325919,47.639689 50.8993333,43.6031064 50.8993333,43.6031064 L46.9102308,43.6031064 Z" id="Shape" fill="#FFFFFF" fill-rule="nonzero"/>
      <path d="M51.7461538,43.5425106 C51.7461538,43.5425106 53.5884302,47.5332823 53.9578841,47.5506084 C54.3273379,47.5679345 55.7352564,43.7157713 55.7352564,43.7157713 L51.7461538,43.5425106 Z" id="Shape" fill="#FFFFFF" fill-rule="nonzero"/>
      <rect id="Rectangle-path" fill="#64645A" fill-rule="nonzero" x="44.9012308" y="42.868383" width="12.9397692" height="4.00815603"/>
      <path d="M56.3144615,36.4528085 C55.587,34.5288936 54.4034615,34.6122128 52.5452308,34.3660426 C50.7246923,34.4607234 48.2822308,34.2297021 46.7481538,35.4113191 C45.2140769,36.5929362 44.8635385,39.1985532 46.3712308,40.4521277 C48.1427692,41.9405106 53.7099231,42.4820851 55.7943077,40.312 C56.5594615,39.5128936 56.8496923,37.8540851 56.3144615,36.4528085 Z" id="Shape" fill="#F01446" fill-rule="nonzero"/>
      <path d="M55.3326168,36.2146708 C57.3757744,36.1341734 57.4693542,37.6993999 57.3757744,38.3970437 C57.2821947,39.0946876 57.2276065,40.3245084 55.4261966,40.2127065 C53.6247866,40.1009046 53.3206524,39.005246 53.4298288,38.3702113 C53.5390052,37.7351765 53.2816609,36.2996402 55.3326168,36.2146708 Z" id="Shape" fill="#6E1E3C" fill-rule="nonzero"/>
      <path d="M48.6836425,36.2146708 C50.7318067,36.1341734 50.8252591,37.6993999 50.7318067,38.3970437 C50.6383544,39.0946876 50.5838405,40.3245084 48.7848825,40.2127065 C46.9859245,40.1009046 46.6822044,39.005246 46.7834444,38.3702113 C46.8846845,37.7351765 46.6354782,36.2996402 48.6836425,36.2146708 Z" id="Shape" fill="#6E1E3C" fill-rule="nonzero"/>
      <path d="M43.3386621,40.7942411 C42.3305993,40.7877682 41.4985369,40.4536532 41.4154057,40.0219567 C41.1046485,39.3432729 40.9899446,38.6507094 41.0738928,37.9599574 C41.181739,37.2803471 42.5657647,37.0177704 43.9857391,36.7860851 C45.0533229,37.5107676 45.3229527,38.400826 44.7226878,39.218781 C44.5429442,39.8057171 44.6507904,40.4621588 43.3386621,40.7942411 Z" id="Shape" fill="#000000" fill-rule="nonzero"/>
      <path d="M62.3309997,41.0593475 C60.091255,40.5991208 60.3876918,39.6033576 60.4535666,38.6745365 C60.4535666,37.6034635 60.717066,37.4863149 62.7262487,37.0511915 C63.8542772,37.5748991 64.4631917,38.3271617 64.3867275,39.1025732 C64.3102632,39.8779847 63.5564068,40.5955538 62.3309997,41.0593475 Z" id="Shape" fill="#000000" fill-rule="nonzero"/>
    </g>
  </g>
</svg>