<svg width="103px" height="94px" viewBox="0 0 103 94" version="1.1" xml:space="preserve" xmlns="http://www.w3.org/2000/svg" xmlns:xlink="http://www.w3.org/1999/xlink">
  <defs/>
  <g>
    <title>bat-c</title>
    <desc>Created with Sketch.</desc>
    <g id="bat-c" stroke="none" stroke-width="1" fill="none" fill-rule="evenodd">
      <path d="M13.778365,34.8178392 L42.6539924,37.6180905 L44.7958555,47.5942211 C44.7958555,47.5942211 45.8460837,54.5364322 46.1660456,56.3492462 C46.3279087,57.25 48.0481749,75.7437186 47.9164259,75.6984925 C39.8722053,72.8831658 35.9649049,59.2173367 35.9649049,59.2173367 L26.633308,55.798995 C26.633308,55.798995 25.0485551,50.111809 21.8828137,48.2613065 C18.7170722,46.410804 14.4220532,46.6633166 14.4220532,46.6633166 C14.4220532,46.6633166 2.28608365,31.3731156 2.33861213,31.0188442 C4.63498099,32.861809 12.671673,34.2449749 13.778365,34.8178392 Z" id="Shape" fill="#C8C8BE" fill-rule="nonzero"/>
      <polygon id="Shape" fill="#F0E6D2" fill-rule="nonzero" points="35.9611407 59.2135678 43.5762357 54.2424623 41.3101521 50.4623116"/>
      <polygon id="Shape" fill="#F0E6D2" fill-rule="nonzero" points="14.4295817 46.6633166 20.9492776 36.6494975 18.6304943 35.8542714"/>
      <path d="M26.6295437,55.798995 L37.2673384,37.5427136 L40.5573004,39.589196 C40.5573004,39.589196 28.2820532,55.0339196 26.6295437,55.798995 Z" id="Shape" fill="#F0E6D2" fill-rule="nonzero"/>
      <path d="M2.33878327,31.0188442 C2.51193916,30.781407 4.72908745,32.2399497 4.72908745,31.7349246 C4.72908745,31.2298995 3.07657795,30.3743719 2.82437262,29.8806533 C3.57722433,29.8806533 5.89977186,30.9321608 6.02022814,30.4120603 C6.14068441,29.8919598 3.30243346,29.1570352 3.5169962,28.5879397 C3.6261597,28.2977387 9.44946768,30.3743719 24.5554373,33.0163317 C31.1579468,34.169598 39.4543726,34.580402 41.4193156,34.629397 L39.2209886,40.8366834 C35.5320152,40.8366834 24.7285932,41.2361809 5.6061597,33.589196 C3.54334601,32.7638191 2.23338403,31.1620603 2.33878327,31.0188442 Z" id="Shape" fill="#828278" fill-rule="nonzero"/>
      <path d="M89.6695817,34.8178392 L60.7977186,37.6180905 L58.6558555,47.5942211 C58.6558555,47.5942211 60.1879087,61.4484925 59.8679468,63.2613065 C59.7060837,64.1620603 56.785019,74.7072864 56.9167681,74.6997487 C68.5558555,73.9459799 67.6938403,58.7839196 67.6938403,58.7839196 L76.818403,55.798995 C76.818403,55.798995 78.3993916,50.111809 81.5688973,48.2613065 C84.738403,46.410804 89.018365,46.678392 89.018365,46.678392 C89.018365,46.678392 100.785437,31.388191 100.729176,31.0339196 C98.4403042,32.861809 90.7762738,34.2449749 89.6695817,34.8178392 Z" id="Shape" fill="#C8C8BE" fill-rule="nonzero"/>
      <polygon id="Shape" fill="#F0E6D2" fill-rule="nonzero" points="89.018365 46.6633166 82.4949049 36.6494975 84.8136882 35.8542714"/>
      <path d="M76.818403,55.798995 L66.1768441,37.5427136 L62.8906464,39.589196 C62.8906464,39.589196 75.1658935,55.0339196 76.818403,55.798995 Z" id="Shape" fill="#F0E6D2" fill-rule="nonzero"/>
      <path d="M100.728973,31.0188442 C100.559582,30.781407 98.3424335,32.2399497 98.3424335,31.7349246 C98.3424335,31.2298995 99.9911787,30.3743719 100.247148,29.8806533 C99.4942966,29.8806533 97.171749,30.9321608 97.0512928,30.4120603 C96.9308365,29.8919598 99.7690875,29.1570352 99.5545247,28.5879397 C99.441597,28.2977387 93.9947148,30.3743719 78.8925095,33.0163317 C72.29,34.169598 63.9935741,34.580402 62.0286312,34.629397 L64.2269582,40.8366834 C67.9159316,40.8366834 78.3429278,41.2361809 97.4653612,33.589196 C99.5281749,32.7638191 100.838137,31.1620603 100.728973,31.0188442 Z" id="Shape" fill="#828278" fill-rule="nonzero"/>
      <polygon id="Shape" fill="#F0E6D2" fill-rule="nonzero" points="67.6938403 58.7839196 61.2870722 52.2525126 59.2957795 56.2361809"/>
      <path d="M47.2614449,62.1155779 L39.7818631,56.5603015 C39.6839924,59.5753769 43.4746008,69.3743719 45.5374144,72.7361809 C46.1848669,73.7763819 48.32673,76.2562814 48.32673,76.2562814 C48.32673,76.2562814 48.0971103,77.4736181 47.8260837,78.8002513 L48.4170722,78.9095477 C48.8687833,76.2713568 49.6442205,73.1017588 49.6442205,73.1017588 C49.6442205,73.1017588 47.4120152,63.3103015 47.2614449,62.1155779 Z" id="Shape" fill="#3C3C32" fill-rule="nonzero"/>
      <path d="M61.9796958,68.6809045 C61.9157034,67.4145729 60.6509125,60.8869347 60.0636882,59.7449749 L52.7572624,64.1733668 C52.9304183,64.3693467 55.4411787,66.8492462 55.6293916,67.0339196 L55.66327,67.0339196 C56.8941825,68.1155779 57.089924,69.5778894 56.3370722,70.991206 C55.444943,72.6796482 52.8588973,73.580402 52.8588973,73.580402 L52.7497338,78.0050251 C52.8880597,78.028079 53.0292406,78.028079 53.1675665,78.0050251 C53.3010443,77.2755427 53.3828073,76.5375193 53.4122433,75.7964824 C53.4122433,75.7964824 59.5555133,75.3819095 61.4978707,71.9409548 C61.9044106,71.2135678 62.0248669,69.611809 61.9796958,68.6809045 Z" id="Shape" fill="#3C3C32" fill-rule="nonzero"/>
      <path d="M43.981987,8.38819095 L42.1777332,8.17318703 C42.0541541,7.90628561 42.0047225,7.6690399 41.8811435,7.43179419 C41.4609748,6.74971278 41.0655219,6.06021744 40.5959216,5.3707221 C40.1223918,5.05080538 40.264308,4.67902581 40.9666587,4.39949749 C42.3013122,4.39949749 42.6473335,4.48846463 42.8450599,4.79243569 C43.215797,5.34106639 43.5123867,5.89711102 43.7842606,6.46056958 C44.0067028,6.91281921 44.1797135,7.36506884 44.3032925,7.8247324 C44.2489472,8.01491821 44.1414679,8.20339967 43.981987,8.38819095 Z" id="Shape" fill="#64645A" fill-rule="nonzero"/>
      <path d="M43.4273049,8.98573838 L42.1893892,8.89876135 C41.9989406,8.62992326 41.8561042,8.38480617 41.6497849,8.10806108 C41.0625684,7.42015184 40.4912227,6.7322426 39.8722648,6.06014736 C39.3802727,5.53828518 39.3485312,5.54619218 39.6342041,5.016423 C40.4912227,4.96107398 40.7292834,5.016423 40.9990856,5.28526109 C41.4910777,5.83875128 41.9354578,6.40014848 42.3798378,6.96154568 C42.8242178,7.52294287 43.0622785,7.87085099 43.3638221,8.33736416 C43.4295622,8.55183209 43.4508352,8.7691009 43.4273049,8.98573838 Z" id="Shape" fill="#64645A" fill-rule="nonzero"/>
      <path d="M41.6158181,8.58417085 L43.6156035,8.34867604 C43.6156035,8.08374437 43.6156035,7.84089034 43.8127655,7.61275473 C44.1507574,6.92834792 44.4887493,6.23658189 44.9112392,5.55217508 C45.2210651,5.02967096 45.3055631,5.03703017 44.3197533,4.59547739 C42.7706238,4.64699188 42.4044659,4.70586558 42.2354699,5.00759332 C41.925644,5.5595343 41.700316,6.11883449 41.4749881,6.67813468 C41.3059922,7.12704667 41.1933282,7.58331788 41.1369962,8.03222988 C41.2053173,8.22081548 41.3662465,8.40631954 41.6158181,8.58417085 Z" id="Shape" fill="#64645A" fill-rule="nonzero"/>
      <path d="M40.9977186,42.4949749 C40.9977186,42.4949749 38.2874525,32.9937186 37.7002281,28.1733668 C37.2146388,24.2085427 37.2974525,20.2324121 37.4743726,16.2525126 C37.5873004,13.6896985 37.8507985,6.72110553 40.9036122,5.69974874 C44.7393916,6.75502513 46.55,16.8291457 47.1635741,19.9723618 C47.9578327,24.080402 49.6103422,34.6105528 49.8663118,38.7638191 C48.0594677,39.8756281 40.9977186,42.4949749 40.9977186,42.4949749 Z" id="Shape" fill="#64645A" fill-rule="nonzero"/>
      <path d="M41.3779087,35.8844221 C41.3779087,35.8844221 39.7065779,26.5301508 39.4957795,19.0527638 C39.3640304,13.8932161 40.1545247,10.339196 40.9224335,10.1130653 C42.8045627,9.55904523 44.4871863,17.6507538 44.8824335,19.6896985 C45.3981369,22.361809 46.6290494,30.9698492 46.7946768,33.6721106 C45.6352852,34.388191 41.3779087,35.8844221 41.3779087,35.8844221 Z" id="Shape" fill="#3C3C32" fill-rule="nonzero"/>
      <path d="M61.8551763,8.2298995 L59.8641825,7.91138314 C59.8641825,7.65077885 60.1398586,7.41913059 60.2011199,7.18748233 C60.2011199,6.50701557 60.5074267,5.82654881 60.568688,5.14608204 C60.568688,4.62487346 60.568688,4.62487346 61.9164377,4.24120603 C63.5398634,4.36426917 63.8768008,4.43665925 63.8461702,4.74069759 C63.8461702,5.29086221 63.6011248,5.84102682 63.4173407,6.39119144 C63.2335567,6.94135605 63.0497726,7.27435043 62.7740966,7.71592992 C62.5413096,7.89408635 62.2334605,8.06627222 61.8551763,8.2298995 Z" id="Shape" fill="#64645A" fill-rule="nonzero"/>
      <path d="M62.6394538,8.62939698 L60.8236576,8.42180699 C60.8236576,8.15490557 60.674414,7.91024593 60.5251705,7.68041415 C60.1271878,6.99091881 59.7292051,6.30142347 59.2566006,5.61934206 C58.7810265,5.29688677 58.9235216,4.92313196 59.6297094,4.64070352 C60.997775,4.64070352 61.3460099,4.72967066 61.5201273,5.03364172 C61.8932362,5.58968635 62.1917232,6.14573098 62.4653363,6.70177561 C62.7389495,7.25782024 62.8633191,7.6136888 62.9628148,8.06593843 C62.9351656,8.25707044 62.8265163,8.4463925 62.6394538,8.62939698 Z" id="Shape" fill="#64645A" fill-rule="nonzero"/>
      <path d="M60.4051042,8.65577889 L61.7314895,8.53869396 C61.9209731,8.26549578 62.0587794,8.02352024 62.248263,7.75812772 C62.8167138,7.07122943 63.3679389,6.38433115 63.9708413,5.69743286 C64.4240395,5.39046368 64.4767165,4.99660901 64.1086475,4.66708543 C63.1784553,4.66708543 62.9200685,4.66708543 62.6616818,4.9637006 C62.1793599,5.51790262 61.7487153,6.07991031 61.3352965,6.641918 C60.9218777,7.2039257 60.6807167,7.56298616 60.4051042,8.02352024 C60.3556549,8.23367754 60.3556549,8.4456216 60.4051042,8.65577889 Z" id="Shape" fill="#64645A" fill-rule="nonzero"/>
      <path d="M63.7677186,47.2625628 C62.2846008,44.7562814 54.1914449,38.3907035 53.7096198,37.7688442 C53.1562738,33.8266332 54.5302281,5.21733668 59.7324335,5.64698492 C64.1441445,6.02386935 63.9973384,14.4170854 64.37,17.3907035 C64.9007605,21.6645729 64.3963498,42.178392 63.7677186,47.2625628 Z" id="Shape" fill="#64645A" fill-rule="nonzero"/>
      <path d="M61.4451711,40.8592965 C62.0361597,33.1896985 62.608327,23.6809045 62.5292776,21.0050251 C62.4464639,18.1595477 61.8291255,7.85552764 59.6006844,9.8040201 C57.3722433,11.7525126 56.4876426,33.0954774 55.9606464,40.1620603 L61.4451711,40.8592965 Z" id="Shape" fill="#3C3C32" fill-rule="nonzero"/>
      <path d="M66.0601521,40.5577889 C65.7627757,37.2487437 64.3022433,33.540201 61.8592395,31.2148241 C58.8473052,28.3729155 54.8270599,26.8521251 50.6906844,26.9899497 C44.4871863,27.1369347 42.3754373,28.4032663 39.2172243,32.9748744 C36.3112167,37.1884422 37.2522814,44.281407 37.5496578,49.1243719 C37.8658555,54.2876884 40.4556654,61.2072864 44.8598479,64.2261307 C49.4597719,67.3806533 56.1526236,67.870603 60.3761217,63.879397 C64.1817871,60.2688442 66.7452471,48.0389447 66.0601521,40.5577889 Z" id="Shape" fill="#64645A" fill-rule="nonzero"/>
      <path d="M46.418251,45.3349141 C46.4558935,44.8363993 46.418251,44.398679 47.0205323,44.1919778 C48.865019,43.571874 52.6292776,43.9123231 53.9467681,43.802893 C55.2642586,43.693463 56.7285551,44.398679 56.7134981,45.6388866 C56.6984411,46.8790941 56.2617871,47.6937402 55.4863498,47.7302169 C54.0634601,47.8031703 52.6405703,47.7910114 51.2214449,47.7302169 C50.0695817,47.7302169 48.9214829,47.5964691 47.7771483,47.4140856 C47.4157795,47.36545 46.2676806,47.3897678 46.418251,45.3349141 Z" id="Shape" fill="#000000" fill-rule="nonzero"/>
      <path d="M47.8976046,43.3128141 C47.8976046,43.3128141 49.4361508,47.2800549 49.8690498,47.3014224 C50.3019487,47.32279 51.8814449,43.3128141 51.8814449,43.3128141 L47.8976046,43.3128141 Z" id="Shape" fill="#FFFFFF" fill-rule="nonzero"/>
      <path d="M52.6819772,43.6896985 C52.6819772,43.6896985 54.2182675,47.6569393 54.6563731,47.6783069 C55.0944787,47.6996744 56.6658175,43.6896985 56.6658175,43.6896985 L52.6819772,43.6896985 Z" id="Shape" fill="#FFFFFF" fill-rule="nonzero"/>
      <rect id="Rectangle-path" fill="#64645A" fill-rule="nonzero" x="45.2287452" y="42.6796482" width="12.9226996" height="3.98869347"/>
      <path d="M56.6269202,36.6721106 C55.9004183,34.7575377 54.7184411,34.8404523 52.8626616,34.5954774 C51.0445247,34.6896985 48.6052852,34.459799 47.0732319,35.6356784 C45.5411787,36.8115578 45.1911027,39.4045226 46.6968061,40.6520101 C48.4660076,42.1331658 54.0258175,42.6721106 56.1074525,40.5125628 C56.871597,39.7173367 57.1614449,38.0665829 56.6269202,36.6721106 Z" id="Shape" fill="#F01446" fill-rule="nonzero"/>
      <path d="M55.6463706,36.4351292 C57.686833,36.3550227 57.7802893,37.9126488 57.686833,38.6069051 C57.5933767,39.3011613 57.5388605,40.5250105 55.7398269,40.4137515 C53.9407933,40.3024924 53.6370604,39.2121541 53.7460927,38.5802029 C53.855125,37.9482517 53.5981202,36.519686 55.6463706,36.4351292 Z" id="Shape" fill="#6E1E3C" fill-rule="nonzero"/>
      <path d="M49.0061673,36.4351292 C51.0516298,36.3550227 51.1449588,37.9126488 51.0516298,38.6069051 C50.9583007,39.3011613 50.9038587,40.5250105 49.1072738,40.4137515 C47.310689,40.3024924 47.0073695,39.2121541 47.108476,38.5802029 C47.2095825,37.9482517 46.9607049,36.519686 49.0061673,36.4351292 Z" id="Shape" fill="#6E1E3C" fill-rule="nonzero"/>
      <path d="M43.291812,40.6155779 C42.285079,40.6091363 41.4541142,40.2766437 41.3710926,39.8470435 C41.0607454,39.1716552 40.9461929,38.4824545 41.0300303,37.7950567 C41.1377342,37.1187464 42.5199341,36.8574447 43.9380354,36.6268844 C45.0042109,37.348048 45.273485,38.2337845 44.674012,39.0477677 C44.4945055,39.6318539 44.6022094,40.2851081 43.291812,40.6155779 Z" id="Shape" fill="#000000" fill-rule="nonzero"/>
      <path d="M63.0119474,40.879397 C60.7751573,40.421405 61.071203,39.430477 61.136991,38.506166 C61.136991,37.4402938 61.4001427,37.3237141 63.406675,36.8907035 C64.5332155,37.4118681 65.1413267,38.1604779 65.0649633,38.9321243 C64.9886,39.7037706 64.235738,40.4178554 63.0119474,40.879397 Z" id="Shape" fill="#000000" fill-rule="nonzero"/>
    </g>
  </g>
</svg>