<svg width="50" height="50" xmlns="http://www.w3.org/2000/svg">

 <g>
  <title>background</title>
  <rect fill="none" id="canvas_background" height="402" width="582" y="-1" x="-1"/>
 </g>
 <g>
  <title>Layer 1</title>
  <path fill-rule="nonzero" fill="#4D6BFE" d="m48.8354,10.0479c-0.5122,-0.25591 -0.7329,0.2319 -1.0322,0.4799c-0.1025,0.0801 -0.1889,0.1841 -0.2759,0.2798c-0.748,0.8164 -1.6225,1.3521 -2.7651,1.2881c-1.6699,-0.0957 -3.0962,1.43987 -4.3564,2.74407c-0.2681,-1.6079 -1.1582,-3.56777 -2.5132,-4.18397c-0.709,-0.3199 -1.4258,-0.6402 -1.9224,-1.33598c-0.3467,-0.49609 -0.4409,-1.04785 -0.6142,-1.59228c-0.1104,-0.32764 -0.53319,-0.66358 -0.90339,-0.71973c-0.4018,-0.06396 -0.24701,0.27979 -0.40471,0.56787c-0.6299,1.17627 -0.8746,2.47222 -0.8506,3.78422c0.0551,2.9521 1.2763,5.3042 3.7026,6.976c0.2759,0.1919 0.3467,0.3838 0.2598,0.6641c-0.1651,0.5757 -0.3623,1.1357 -0.5357,1.7119c-0.1103,0.3682 -0.2754,0.4478 -0.6616,0.2881c-1.3315,-0.5679 -2.4814,-1.4082 -3.498,-2.4243c-1.7251,-1.7036 -3.2852,-3.584 -5.231,-5.0557c-0.457,-0.3442 -0.9141,-0.664 -1.3867,-0.9682c-1.9849,-1.9678 0.4244,-4.07571 0.7803,-3.77592c0.3559,0.29979 0.1889,-0.88818 -1.5679,-0.87988c-1.7569,0.00781 -3.3638,0.60791 -5.4121,1.40771c-0.2993,0.12012 -0.05231,0.6455 -0.9375,0.28027c-0.88519,-0.36523 -3.9771,-0.62793 -5.9937,-0.3955c-3.79734,0.43164 -6.64305,2.45112 -8.87254,5.57962c-2.67871,3.7597 -3.93406,8.46919 -3.1616,12.92529c0.81104,4.6962 3.78416,8.14641 7.39207,11.18651c3.74217,3.1523 7.73928,4.5713 12.96727,4.4004c5.22799,-0.1709 6.3106,-0.584 10.0606,-3.8242c0.9453,0.4799 1.938,0.6718 3.5844,0.8159c1.2686,0.1201 2.32909,0.0556 3.4351,-0.2642c1.10601,-0.3198 1.3784,-1.7197 0.8428,-1.9756c-4.3409,-2.0644 -3.3877,-1.2241 -4.2539,-1.9043c2.2055,-2.664 5.5302,-5.4321 6.83,-14.3999c0.1026,-0.7119 0.0157,-1.1601 0,-1.7363c-0.0078,-0.3521 0.0708,-0.4878 0.4649,-0.5278c1.0874,-0.128 2.143,-0.4322 3.1118,-0.9761c2.8125,-1.5679 3.9473,-4.144 4.2148,-7.2319c0.0396,-0.4722 -0.0078,-0.96 -0.4961,-1.208zm-24.5092,27.7919c-4.2066,-3.3759 -5.4346,-4.0502 -6.2779,-4.0024c-0.7876,0.0483 -1.4585,0.5308 -1.2851,1.1304c0.1811,0.5923 0.418,1.0005 0.7485,1.52c0.2285,0.3442 0.3862,0.8564 -0.2285,1.2402c-1.355,0.856 -3.7104,-0.2881 -3.8208,-0.3442c-2.7417,-1.648 -5.03418,-3.8237 -6.64892,-6.7998c-1.56006,-2.8643 -2.70118,-7.5493 -2.55323,-7.6538c0.14795,-0.1045 -0.47557,-1.2133 1.89844,-2.5283c2.37401,-1.315 10.02981,2.27 13.09421,5.374c1.7491,1.768 3.0723,3.8799 4.4356,5.9443c1.4492,2.1919 3.0093,4.2798 4.9946,5.9917c0.7012,0.6001 1.2603,1.0562 1.7959,1.3921c-1.6147,0.1841 -4.3091,0.2241 -6.1528,-1.2642zm0.2671,-13.4897c0.5625,-1.5395 2.80619,-1.772 3.80999,-0.5698c1.0038,1.2022 1.0259,3.07659 -0.9458,3.82659c-1.9717,0.75 -3.42669,-1.71729 -2.86419,-3.25679z" id="path"/>
 </g>
</svg>